HIERARCHY
ROOT hip
{
	OFFSET 0.000000 0.000000 0.000000 
	CHANNELS 6 Xposition Yposition Zposition Zrotation Xrotation Yrotation
	JOINT abdomen
	{
		OFFSET 0.000000 3.402643 0.000000 
		CHANNELS 3 Zrotation Xrotation Yrotation
		JOINT chest
		{
			OFFSET 0.000000 8.438565 -0.680529 
			CHANNELS 3 Zrotation Xrotation Yrotation
			JOINT neck
			{
				OFFSET 0.000000 10.207942 -0.272212 
				CHANNELS 3 Zrotation Xrotation Yrotation
				JOINT head
				{
					OFFSET 0.000000 3.130431 0.000000 
					CHANNELS 3 Zrotation Xrotation Yrotation
					End Site
					{
						OFFSET 0.000000 3.130435 0.000000 
					}
				}
			}
			JOINT lCollar
			{
				OFFSET 3.470700 6.669187 -0.816635 
				CHANNELS 3 Zrotation Xrotation Yrotation
				JOINT lShldr
				{
					OFFSET 3.198488 0.000000 0.000000 
					CHANNELS 3 Zrotation Xrotation Yrotation
					JOINT lForeArm
					{
						OFFSET 10.139888 0.000000 0.000000 
						CHANNELS 3 Zrotation Xrotation Yrotation
						JOINT lHand
						{
							OFFSET 8.370511 0.000000 0.000000 
							CHANNELS 3 Zrotation Xrotation Yrotation
							End Site
							{
								OFFSET 4.083176 0.000000 0.000000 
							}
						}
					}
				}
			}
			JOINT rCollar
			{
				OFFSET -3.470700 6.669187 -0.816635 
				CHANNELS 3 Zrotation Xrotation Yrotation
				JOINT rShldr
				{
					OFFSET -3.198488 0.000000 0.000000 
					CHANNELS 3 Zrotation Xrotation Yrotation
					JOINT rForeArm
					{
						OFFSET -10.139888 0.000000 0.000000 
						CHANNELS 3 Zrotation Xrotation Yrotation
						JOINT rHand
						{
							OFFSET -8.370511 0.000000 0.000000 
							CHANNELS 3 Zrotation Xrotation Yrotation
							End Site
							{
								OFFSET -4.083176 0.000000 0.000000 
							}
						}
					}
				}
			}
		}
	}
	JOINT lThigh
	{
		OFFSET 5.308129 -1.633274 1.361059 
		CHANNELS 3 Zrotation Xrotation Yrotation
		JOINT lShin
		{
			OFFSET -2.041588 -20.007561 0.000000 
			CHANNELS 3 Zrotation Xrotation Yrotation
			JOINT lFoot
			{
				OFFSET 0.000000 -19.190928 -1.224953 
				CHANNELS 3 Zrotation Xrotation Yrotation
				End Site
				{
					OFFSET 0.000000 -2.449906 4.627600 
				}
			}
		}
	}
	JOINT rThigh
	{
		OFFSET -5.308129 -1.633274 1.361059 
		CHANNELS 3 Zrotation Xrotation Yrotation
		JOINT rShin
		{
			OFFSET 2.041588 -20.007561 0.000000 
			CHANNELS 3 Zrotation Xrotation Yrotation
			JOINT rFoot
			{
				OFFSET 0.000000 -19.190928 -1.224953 
				CHANNELS 3 Zrotation Xrotation Yrotation
				End Site
				{
					OFFSET 0.000000 -2.449906 4.627600 
				}
			}
		}
	}
}
MOTION
Frames: 18
Frame Time: 0.033333
0.000000 54.268673 0.264509 0.205085 0.468733 -0.011409 0.000000 6.250000 -0.029297 -0.000000 -7.050777 -0.029297 0.029297 0.166011 -0.019611 0.078127 0.400391 -0.000533 -5.686998 -0.283497 1.962946 -61.943634 -24.794531 18.757124 -74.522980 0.771910 -74.173622 2.188076 -40.924152 -4.832999 5.667830 -0.270052 -2.031042 64.970634 -28.678242 -10.689144 64.304123 -4.109808 67.234436 0.036654 -37.725182 6.781548 102.936470 -67.444046 142.591721 -168.194061 44.064655 176.002243 -7.137559 12.581182 -62.245895 -91.060059 -74.738495 -134.292938 142.339706 54.278259 -118.081261 -10.809464 -1.143267 13.238255 
0.000000 53.267971 0.159014 0.205085 0.468733 -0.011409 -0.000000 5.624999 -0.019531 -0.000000 -7.031249 -0.019531 0.009766 0.078121 -0.009777 0.039062 0.195313 -0.000133 -5.687238 -0.275668 1.982386 -61.973930 -24.791828 18.756699 -74.398544 0.417618 -74.111702 2.608874 -40.949299 -4.644450 5.667830 -0.270052 -2.031042 65.039063 -28.644016 -10.640924 64.164063 -4.459669 66.782204 -1.379971 -37.834026 5.612906 102.936470 -67.444046 142.591721 -168.194061 44.064655 176.002243 -7.137559 12.581182 -62.245895 -91.060059 -74.738495 -134.292938 142.339706 54.278259 -118.081276 -10.798395 -1.124089 13.223771 
0.000000 52.610962 0.053519 0.205085 0.468733 -0.011409 -0.000000 4.990234 -0.000000 -0.000000 -7.001955 -0.000000 -0.000000 -0.000003 -0.000000 -0.000000 0.000001 -0.000000 -5.687435 -0.268816 2.011532 -61.998768 -24.803780 18.758574 -74.339371 0.040606 -74.045677 3.015356 -40.968773 -4.468423 5.667830 -0.270052 -2.031042 65.105522 -28.618713 -10.593654 64.025375 -4.803308 66.319717 -2.804446 -37.927303 4.440618 102.936470 -67.444046 142.591721 -168.194061 44.064655 176.002243 -7.137561 12.581194 -62.245895 -91.060059 -74.738495 -134.292938 142.339722 54.278248 -118.081291 -10.798397 -1.124086 13.223771 
0.000000 52.659916 0.116816 0.205085 0.468733 -0.011409 0.000000 5.371094 -0.009766 -0.000000 -7.021485 -0.009766 -0.000000 0.048824 -0.009766 0.019531 0.117188 -0.000040 -5.687191 -0.276637 1.992096 -61.980244 -24.801086 18.758150 -74.391907 0.261977 -74.082413 2.761309 -40.957787 -4.587183 5.667830 -0.270052 -2.031042 65.061508 -28.636168 -10.617775 64.105598 -4.596065 66.592834 -1.947786 -37.874977 5.143053 102.936455 -67.444023 142.591690 -168.194061 44.064651 176.002243 -7.137559 12.581182 -62.245895 -91.060059 -74.738495 -134.292938 142.339706 54.278259 -118.081276 -10.809464 -1.143267 13.238255 
0.000000 53.252110 0.180113 0.205085 0.468733 -0.011409 -0.000000 5.742188 -0.019531 -0.000000 -7.031249 -0.019531 0.009766 0.097652 -0.019547 0.048828 0.244142 -0.000208 -5.687238 -0.275668 1.982386 -61.973930 -24.791828 18.756699 -74.444717 0.479197 -74.127586 2.506439 -40.942558 -4.697728 5.667830 -0.270052 -2.031042 65.021927 -28.652739 -10.652992 64.188683 -4.389349 66.865601 -1.096260 -37.813347 5.847351 102.936470 -67.444061 142.591705 -168.194077 44.064655 176.002243 -7.137561 12.581194 -62.245895 -91.060059 -74.738495 -134.292938 142.339706 54.278259 -118.081276 -10.798398 -1.124088 13.223771 
0.000000 54.093567 0.243410 0.205085 0.468733 -0.011409 0.000000 6.123048 -0.029297 -0.000000 -7.050777 -0.029297 0.019531 0.146481 -0.019581 0.068360 0.361328 -0.000419 -5.686998 -0.283497 1.962946 -61.953400 -24.794525 18.757124 -74.495735 0.704944 -74.154648 2.265279 -40.931458 -4.797203 5.667830 -0.270052 -2.031042 64.987648 -28.670187 -10.677140 64.279556 -4.180435 67.151299 -0.246377 -37.747375 6.548482 102.936455 -67.444023 142.591690 -168.194061 44.064651 176.002243 -7.137559 12.581182 -62.245895 -91.060059 -74.738495 -134.292938 142.339722 54.278248 -118.081291 -10.798395 -1.124089 13.223771 
0.000000 54.890297 0.306708 0.205085 0.468733 -0.011409 -0.000000 6.494141 -0.039063 0.000000 -7.060544 -0.039063 0.029297 0.205073 -0.029402 0.097660 0.488282 -0.000815 -5.686746 -0.291319 1.953229 -61.939331 -24.793205 18.746052 -74.550278 0.921608 -74.198936 2.021442 -40.911110 -4.902357 5.667830 -0.270052 -2.031042 64.938591 -28.685165 -10.712218 64.359619 -3.970976 67.422653 0.602045 -37.678795 7.246533 102.936447 -67.444016 142.591690 -168.194061 44.064655 176.002243 -7.137561 12.581194 -62.245895 -91.060059 -74.738495 -134.292938 142.339722 54.278248 -118.081291 -10.798395 -1.124089 13.223771 
0.000000 55.348328 0.370004 0.205085 0.468733 -0.011409 0.009837 6.865235 -0.040237 -0.000000 -7.070313 -0.048828 0.039063 0.253903 -0.029463 0.117195 0.605468 -0.001238 -5.686794 -0.290356 1.943511 -61.929569 -24.793198 18.746054 -74.601936 1.139070 -74.242859 1.780738 -40.902416 -5.011111 5.667830 -0.270052 -2.031042 64.903938 -28.704153 -10.736547 64.451881 -3.756294 67.698425 1.440624 -37.610245 7.942369 102.936470 -67.444061 142.591705 -168.194077 44.064655 176.002243 -7.137561 12.581194 -62.245895 -91.060059 -74.738495 -134.292938 142.339722 54.278248 -118.081291 -10.809464 -1.143263 13.238256 
0.000000 55.261440 0.290884 0.205085 0.468733 -0.011409 0.000000 6.406253 -0.029297 0.000000 -7.060544 -0.039063 0.029297 0.185544 -0.019626 0.087894 0.458982 -0.000689 -5.686746 -0.291319 1.953229 -61.948105 -24.795904 18.746471 -74.540024 0.863478 -74.193687 2.084802 -40.913898 -4.877965 5.667830 -0.270052 -2.031042 64.953339 -28.687613 -10.701293 64.345047 -4.018544 67.352982 0.376715 -37.694988 7.061402 102.936470 -67.444046 142.591721 -168.194061 44.064655 176.002243 -7.137559 12.581182 -62.245895 -91.060059 -74.738495 -134.292938 142.339706 54.278259 -118.081276 -10.798398 -1.124088 13.223771 
0.000000 54.774487 0.211762 0.205085 0.468733 -0.011409 -0.000000 5.937499 -0.019531 -0.000000 -7.041017 -0.019531 0.019531 0.126948 -0.019574 0.058595 0.302736 -0.000310 -5.686947 -0.284456 1.972664 -61.963161 -24.794533 18.757124 -74.480003 0.587283 -74.143875 2.391210 -40.932999 -4.740044 5.667830 -0.270052 -2.031042 65.005112 -28.659906 -10.664909 64.236603 -4.283680 67.015190 -0.671121 -37.780804 6.198310 102.936470 -67.444046 142.591721 -168.194061 44.064655 176.002243 -7.137559 12.581182 -62.245895 -91.060059 -74.738495 -134.292938 142.339706 54.278259 -118.081261 -10.798394 -1.124086 13.223770 
0.000000 54.120090 0.132640 0.205085 0.468733 -0.011409 -0.000000 5.468749 -0.009766 0.000000 -7.021484 -0.019531 0.009766 0.058594 -0.009774 0.029297 0.146485 -0.000075 -5.687191 -0.276637 1.992096 -61.983704 -24.791828 18.756699 -74.409996 0.313886 -74.095123 2.698080 -40.955276 -4.611298 5.667830 -0.270052 -2.031042 65.056198 -28.635294 -10.628854 64.129570 -4.543465 66.667809 -1.735087 -37.867947 5.314968 102.936455 -67.444023 142.591690 -168.194077 44.064655 176.002243 -7.137559 12.581182 -62.245895 -91.060059 -74.738495 -134.292938 142.339706 54.278259 -118.081261 -10.809464 -1.143267 13.238256 
0.000000 53.530842 0.053519 0.205085 0.468733 -0.011409 -0.000000 4.990234 -0.000000 -0.000000 -7.001955 -0.000000 -0.000000 -0.000003 -0.000000 -0.000000 0.000001 -0.000000 -5.687435 -0.268816 2.011532 -61.998768 -24.803780 18.758574 -74.339371 0.040606 -74.045677 3.015356 -40.968773 -4.468423 5.667830 -0.270052 -2.031042 65.105522 -28.618713 -10.593654 64.025375 -4.803308 66.319717 -2.804446 -37.927303 4.440618 102.936470 -67.444046 142.591721 -168.194061 44.064651 176.002243 -7.137561 12.581194 -62.245895 -91.060059 -74.738495 -134.292938 142.339706 54.278259 -118.081276 -10.809464 -1.143267 13.238255 
0.000000 53.189861 0.098731 0.205085 0.468733 -0.011409 -0.000000 5.263671 -0.009766 0.000000 -7.011720 -0.009766 -0.000000 0.029292 -0.009766 0.009766 0.078125 -0.000013 -5.687486 -0.267844 2.001814 -61.988991 -24.803772 18.758575 -74.383827 0.194338 -74.072716 2.837814 -40.960384 -4.542997 5.667830 -0.270052 -2.031042 65.078957 -28.625885 -10.605553 64.081299 -4.657381 66.513527 -2.205337 -37.896885 4.929516 102.936455 -67.444023 142.591690 -168.194077 44.064655 176.002243 -7.137561 12.581194 -62.245895 -91.060059 -74.738495 -134.292938 142.339722 54.278248 -118.081291 -10.798395 -1.124089 13.223771 
0.000000 53.073063 0.143944 0.205085 0.468733 -0.011409 -0.000000 5.527344 -0.019531 0.000000 -7.021484 -0.019531 0.009766 0.068358 -0.009778 0.029297 0.166017 -0.000085 -5.687191 -0.276637 1.992096 -61.973930 -24.791828 18.756699 -74.418709 0.350785 -74.101181 2.660794 -40.956200 -4.626422 5.667830 -0.270052 -2.031042 65.044373 -28.644901 -10.629847 64.140442 -4.503570 66.711563 -1.596970 -37.851505 5.437249 102.936455 -67.444023 142.591690 -168.194077 44.064655 176.002243 -7.137561 12.581194 -62.245895 -91.060059 -74.738495 -134.292938 142.339722 54.278248 -118.081291 -10.809465 -1.143263 13.238257 
0.000000 53.112125 0.189155 0.205085 0.468733 -0.011409 -0.000000 5.800780 -0.019531 -0.000000 -7.031249 -0.019531 0.019531 0.107422 -0.019568 0.048828 0.253905 -0.000216 -5.687238 -0.275668 1.982386 -61.963161 -24.794533 18.757124 -74.453377 0.507270 -74.129456 2.480470 -40.939098 -4.706767 5.667830 -0.270052 -2.031042 65.021927 -28.652739 -10.652992 64.205353 -4.360190 66.905495 -0.981129 -37.800652 5.942590 102.936455 -67.444023 142.591690 -168.194077 44.064655 176.002243 -7.137561 12.581194 -62.245895 -91.060059 -74.738495 -134.292938 142.339706 54.278259 -118.081276 -10.798394 -1.124086 13.223770 
0.000000 53.248684 0.234368 0.205085 0.468733 -0.011409 -0.000000 6.064455 -0.029297 0.000000 -7.041015 -0.029297 0.019531 0.146481 -0.019581 0.068360 0.341797 -0.000396 -5.686947 -0.284456 1.972664 -61.953400 -24.794525 18.757124 -74.497231 0.661135 -74.155815 2.302615 -40.930660 -4.781978 5.667830 -0.270052 -2.031042 64.987648 -28.670187 -10.677140 64.259995 -4.208497 67.111282 -0.369442 -37.764847 6.454566 102.936455 -67.444023 142.591690 -168.194077 44.064655 176.002243 -7.137559 12.581182 -62.245895 -91.060051 -74.738472 -134.292923 142.339722 54.278252 -118.081291 -10.769182 -1.103683 13.224077 
0.000000 53.434147 0.279580 0.205085 0.468733 -0.011409 0.000000 6.337893 -0.029297 -0.000000 -7.050777 -0.029297 0.029297 0.175779 -0.019621 0.078127 0.429689 -0.000573 -5.686998 -0.283497 1.962946 -61.948105 -24.795904 18.746471 -74.531517 0.817698 -74.183662 2.124736 -40.921391 -4.857347 5.667830 -0.270052 -2.031042 64.960716 -28.678902 -10.689219 64.327782 -4.065518 67.304787 0.235477 -37.707275 6.945223 102.936470 -67.444046 142.591721 -168.194077 44.064655 176.002243 -7.137561 12.581194 -62.245895 -91.060059 -74.738495 -134.292938 142.339722 54.278248 -118.081291 -10.809465 -1.143263 13.238257 
0.000000 53.628628 0.324792 0.205085 0.468733 -0.011409 -0.000000 6.601561 -0.039063 -0.000000 -7.060544 -0.039063 0.039063 0.214837 -0.029443 0.097660 0.517581 -0.000865 -5.686745 -0.291319 1.953240 -61.939331 -24.793205 18.746052 -74.576729 0.983986 -74.204773 1.958070 -40.908264 -4.926775 5.667829 -0.270051 -2.031054 64.936516 -28.694761 -10.713212 64.383858 -3.908934 67.501358 0.840490 -37.654739 7.446431 102.936470 -67.444061 142.591705 -168.194077 44.064663 176.002243 -7.137561 12.581186 -62.245903 -91.060089 -74.738480 -134.292953 142.339722 54.278252 -118.081291 -10.769177 -1.103688 13.224077 
